<svg xmlns="http://www.w3.org/2000/svg" viewBox="0 0 116.13 25.12"><defs><style>.cls-1{fill:#1e81a3;}</style></defs><title>logo-text</title><g id="Capa_2" data-name="Capa 2"><g id="Layer_1" data-name="Layer 1"><path class="cls-1" d="M1.25,4.64A9.3,9.3,0,0,1,9.37,0,9.29,9.29,0,0,1,14.1,1.25a9.3,9.3,0,0,1,4.64,8.13,9.23,9.23,0,0,1-1.25,4.72,9.14,9.14,0,0,1-3.39,3.37,9.28,9.28,0,0,1-4.73,1.24,9.26,9.26,0,0,1-4.73-1.24A9.14,9.14,0,0,1,1.25,14.1,9.23,9.23,0,0,1,0,9.38,9.28,9.28,0,0,1,1.25,4.64Zm2.42,8.05A6.42,6.42,0,0,0,6,15.06a6.51,6.51,0,0,0,3.33.86,6.46,6.46,0,0,0,3.31-.86,6.5,6.5,0,0,0,3.26-5.68A6.51,6.51,0,0,0,9.37,2.8,6.51,6.51,0,0,0,2.8,9.38,6.47,6.47,0,0,0,3.67,12.69Z"/><path class="cls-1" d="M35.81,7.9a3.55,3.55,0,0,1,1.36,1.67,6.7,6.7,0,0,1,.47,2.62V18a.33.33,0,0,1-.35.36h-2a.35.35,0,0,1-.26-.1.36.36,0,0,1-.1-.26V12.17A2.67,2.67,0,0,0,34.68,11a1.89,1.89,0,0,0-.7-.8,1.82,1.82,0,0,0-1-.28,2.36,2.36,0,0,0-1.17.29A2,2,0,0,0,31,11a2.66,2.66,0,0,0-.29,1.26V18a.36.36,0,0,1-.09.26.36.36,0,0,1-.27.1h-2A.34.34,0,0,1,28,18V12.17a2.68,2.68,0,0,0-.26-1.2,1.92,1.92,0,0,0-.7-.79,1.81,1.81,0,0,0-1-.28,2.17,2.17,0,0,0-1.16.32,2.12,2.12,0,0,0-.78.87,2.77,2.77,0,0,0-.28,1.28V18a.32.32,0,0,1-.35.36h-2a.32.32,0,0,1-.35-.36V8a.35.35,0,0,1,.09-.25.4.4,0,0,1,.27-.09h1.58c.19,0,.31.07.34.22L23.63,9A3.78,3.78,0,0,1,25,7.76a3.65,3.65,0,0,1,1.76-.44,4,4,0,0,1,2.1.55,3.5,3.5,0,0,1,1.36,1.59,3.56,3.56,0,0,1,1.4-1.57,3.94,3.94,0,0,1,2.08-.57A3.89,3.89,0,0,1,35.81,7.9Z"/><path class="cls-1" d="M48.62,7.91a3.86,3.86,0,0,1,1.5,1.69,6.12,6.12,0,0,1,.52,2.58V18a.34.34,0,0,1-.1.26.36.36,0,0,1-.26.09h-2a.36.36,0,0,1-.26-.09.38.38,0,0,1-.1-.26V12.17A2.22,2.22,0,0,0,47.62,11a2.19,2.19,0,0,0-.86-.82,2.37,2.37,0,0,0-1.17-.3,2.44,2.44,0,0,0-1.24.32,2.35,2.35,0,0,0-.9.87,2.48,2.48,0,0,0-.34,1.26V18c0,.24-.11.36-.34.36h-2c-.23,0-.34-.12-.34-.36V8a.35.35,0,0,1,.09-.25.37.37,0,0,1,.27-.09h1.57c.2,0,.31.07.35.22L42.93,9a4.27,4.27,0,0,1,1.48-1.22,4.12,4.12,0,0,1,1.9-.45A4.34,4.34,0,0,1,48.62,7.91Z"/><path class="cls-1" d="M54,4.18a1.78,1.78,0,0,1-.62-.6,1.61,1.61,0,0,1-.22-.83,1.61,1.61,0,0,1,.22-.83A1.81,1.81,0,0,1,54,1.31a1.69,1.69,0,0,1,.83-.22,1.72,1.72,0,0,1,.83.22,1.78,1.78,0,0,1,.61.61,1.68,1.68,0,0,1,0,1.66,1.75,1.75,0,0,1-.61.6,1.61,1.61,0,0,1-.83.22A1.59,1.59,0,0,1,54,4.18ZM56,7.73a.3.3,0,0,1,.1.25V18.07a.3.3,0,0,1-.1.25.37.37,0,0,1-.25.08h-2a.29.29,0,0,1-.33-.33V8a.29.29,0,0,1,.33-.33h2A.33.33,0,0,1,56,7.73Z"/><path class="cls-1" d="M67.79,18.25a3.15,3.15,0,0,1,1.42,1.13,3,3,0,0,1,.5,1.74A3.49,3.49,0,0,1,69,23.27a4.27,4.27,0,0,1-1.94,1.37,8.22,8.22,0,0,1-2.93.48,17.69,17.69,0,0,1-2.59-.2,10.12,10.12,0,0,1-2.23-.58.48.48,0,0,1-.2-.17.44.44,0,0,1-.06-.23.55.55,0,0,1,0-.17l.59-1.45a.4.4,0,0,1,.14-.19.37.37,0,0,1,.23-.07l.15,0a9.3,9.3,0,0,0,1.84.46,12.77,12.77,0,0,0,2.1.18,6,6,0,0,0,2.3-.36c.56-.24.84-.59.84-1a.87.87,0,0,0-.41-.83,2.5,2.5,0,0,0-1.27-.25H62.4a4.57,4.57,0,0,1-1.9-.37,3,3,0,0,1-1.31-1,3,3,0,0,1-.12-3,2.36,2.36,0,0,1,.93-1,4.48,4.48,0,0,1-.74-1.34A4.8,4.8,0,0,1,59,12a4.85,4.85,0,0,1,.6-2.42,4.21,4.21,0,0,1,1.65-1.67,4.67,4.67,0,0,1,2.39-.61,4.82,4.82,0,0,1,.82.09,9,9,0,0,1,1,.26h3.33a.53.53,0,0,1,.37.12.49.49,0,0,1,.14.36V9.38a.45.45,0,0,1-.15.34.45.45,0,0,1-.36.14H67.66A3.84,3.84,0,0,1,68.33,12a4.5,4.5,0,0,1-.6,2.37A4.39,4.39,0,0,1,66,16a5,5,0,0,1-2.43.59,4.79,4.79,0,0,1-1.94-.41.87.87,0,0,0-.39.34.91.91,0,0,0-.15.52.63.63,0,0,0,.36.56,1.66,1.66,0,0,0,.91.22h3.22A5.53,5.53,0,0,1,67.79,18.25Zm-5.23-8.16A2.23,2.23,0,0,0,61.5,12a2.23,2.23,0,0,0,.28,1.08,2,2,0,0,0,.77.77,2.14,2.14,0,0,0,1.09.29,2.24,2.24,0,0,0,1.12-.28,2.09,2.09,0,0,0,.79-.77A2,2,0,0,0,65.84,12a2.13,2.13,0,0,0-.29-1.12,2.17,2.17,0,0,0-.79-.8,2.24,2.24,0,0,0-1.11-.29A2.14,2.14,0,0,0,62.56,10.09Z"/><path class="cls-1" d="M80,8.55a.38.38,0,0,1-.07.22L79,10.21a.29.29,0,0,1-.27.16.26.26,0,0,1-.18-.06l-.08-.07a2.21,2.21,0,0,0-.81-.41,3.11,3.11,0,0,0-.89-.14,2.79,2.79,0,0,0-1.37.35,2.68,2.68,0,0,0-1,1A2.59,2.59,0,0,0,74,12.33V18c0,.24-.11.36-.34.36h-2c-.23,0-.34-.12-.34-.36V8a.35.35,0,0,1,.09-.25.37.37,0,0,1,.27-.09h1.57c.2,0,.31.07.35.22l.22,1.21a4.22,4.22,0,0,1,1.46-1.29,3.81,3.81,0,0,1,1.85-.48,4.38,4.38,0,0,1,1.5.26,3.19,3.19,0,0,1,1.2.75A.26.26,0,0,1,80,8.55Z"/><path class="cls-1" d="M88.72,8.1a5.39,5.39,0,0,1,1.94,2.08A5.77,5.77,0,0,1,91.32,13a1.06,1.06,0,0,1-.35.81,1.17,1.17,0,0,1-.79.29h-7a3.34,3.34,0,0,0,1.12,1.54,2.88,2.88,0,0,0,1.78.6,4.07,4.07,0,0,0,2.28-.84.49.49,0,0,1,.24-.07.33.33,0,0,1,.25.15l.43.6c.2.27.36.49.48.67a.52.52,0,0,1,.08.25.32.32,0,0,1-.13.26A5.5,5.5,0,0,1,86,18.73,5.68,5.68,0,0,1,83.11,18,5.79,5.79,0,0,1,81,15.88,5.46,5.46,0,0,1,80.24,13a5.62,5.62,0,0,1,5.68-5.68A5.28,5.28,0,0,1,88.72,8.1Zm-4.66,2.45a2.69,2.69,0,0,0-1,1.56h5.49a2.8,2.8,0,0,0-.91-1.56A2.61,2.61,0,0,0,85.89,10,3,3,0,0,0,84.06,10.55Z"/><path class="cls-1" d="M101.15,8.1a5.39,5.39,0,0,1,1.94,2.08,5.77,5.77,0,0,1,.66,2.86,1.06,1.06,0,0,1-.35.81,1.17,1.17,0,0,1-.79.29h-7a3.27,3.27,0,0,0,1.12,1.54,2.88,2.88,0,0,0,1.78.6,4.07,4.07,0,0,0,2.28-.84.49.49,0,0,1,.24-.07.33.33,0,0,1,.25.15l.43.6c.2.27.36.49.48.67a.52.52,0,0,1,.08.25.32.32,0,0,1-.13.26,5.5,5.5,0,0,1-3.67,1.43A5.66,5.66,0,0,1,95.54,18a5.79,5.79,0,0,1-2.09-2.08A5.46,5.46,0,0,1,92.67,13a5.62,5.62,0,0,1,5.68-5.68A5.28,5.28,0,0,1,101.15,8.1Zm-4.66,2.45a2.69,2.69,0,0,0-1,1.56H101a2.8,2.8,0,0,0-.91-1.56A2.61,2.61,0,0,0,98.32,10,3,3,0,0,0,96.49,10.55Z"/><path class="cls-1" d="M114.11,7.91a3.86,3.86,0,0,1,1.5,1.69,6,6,0,0,1,.52,2.58V18a.37.37,0,0,1-.09.26.37.37,0,0,1-.27.09h-2a.37.37,0,0,1-.27-.09.37.37,0,0,1-.09-.26V12.17a2.22,2.22,0,0,0-.32-1.16,2.16,2.16,0,0,0-.85-.82,2.37,2.37,0,0,0-1.17-.3,2.41,2.41,0,0,0-1.24.32,2.35,2.35,0,0,0-1.24,2.13V18a.32.32,0,0,1-.35.36h-2a.32.32,0,0,1-.35-.36V8a.32.32,0,0,1,.1-.25.36.36,0,0,1,.26-.09h1.58c.19,0,.31.07.34.22L108.42,9a4.27,4.27,0,0,1,1.48-1.22,4.19,4.19,0,0,1,1.91-.45A4.31,4.31,0,0,1,114.11,7.91Z"/></g></g></svg>